<?xml version="1.0" encoding="UTF-8"?><!DOCTYPE svg PUBLIC "-//W3C//DTD SVG 1.1//EN" "http://www.w3.org/Graphics/SVG/1.1/DTD/svg11.dtd"><svg xmlns="http://www.w3.org/2000/svg" xmlns:xlink="http://www.w3.org/1999/xlink"><symbol id="icon-github" viewBox="0 0 24 24"><path d="m12 .5c-6.63 0-12 5.28-12 11.792 0 5.211 3.438 9.63 8.205 11.188.6.111.82-.254.82-.567 0-.28-.01-1.022-.015-2.005-3.338.711-4.042-1.582-4.042-1.582-.546-1.361-1.335-1.725-1.335-1.725-1.087-.731.084-.716.084-.716 1.205.082 1.838 1.215 1.838 1.215 1.07 1.803 2.809 1.282 3.495.981.108-.763.417-1.282.76-1.577-2.665-.295-5.466-1.309-5.466-5.827 0-1.287.465-2.339 1.235-3.164-.135-.298-.54-1.497.105-3.121 0 0 1.005-.316 3.3 1.209.96-.262 1.98-.392 3-.398 1.02.006 2.04.136 3 .398 2.28-1.525 3.285-1.209 3.285-1.209.645 1.624.24 2.823.12 3.121.765.825 1.23 1.877 1.23 3.164 0 4.53-2.805 5.527-5.475 5.817.42.354.81 1.077.81 2.182 0 1.578-.015 2.846-.015 3.229 0 .309.21.678.825.56 4.801-1.548 8.236-5.97 8.236-11.173 0-6.512-5.373-11.792-12-11.792z" fill="#212121"/></symbol><symbol id="icon-mail" viewBox="0 0 26 20">
<path d="M24.2273 0H1.77273C0.768182 0 0 0.764706 0 1.76471V18.2353C0 19.2353 0.768182 20 1.77273 20H24.2273C25.2318 20 26 19.2353 26 18.2353V1.76471C26 0.764706 25.2318 0 24.2273 0ZM24.2273 17L19.5591 12.3529C19.2045 12 18.6727 12 18.3182 12.3529C17.9636 12.7059 17.9636 13.2353 18.3182 13.5882L22.9864 18.2353H3.01362L7.68182 13.5882C8.03636 13.2353 8.03636 12.7059 7.68182 12.3529C7.32727 12 6.79547 12 6.44092 12.3529L1.77273 17V5.70585L12.4091 13.7059C12.5864 13.8236 12.7636 13.8823 12.9409 13.8823C13.1182 13.8823 13.2954 13.8236 13.4727 13.7059L24.2273 5.70585V17ZM24.2273 1.76471V3.4706L12.9409 11.8235L1.77273 3.4706V1.76471H24.2273Z" fill="#D7D9DF"/>
</symbol><symbol id="icon-phone" viewBox="0 0 17 24">
<path d="M1.39635 6.62432C1.31179 5.42623 1.57753 4.24606 2.28114 3.29684C2.89115 2.43632 3.68536 1.96636 4.64264 1.69172C5.44893 1.4525 5.9774 1.74561 6.20992 2.64204C6.54211 3.98224 7.01622 5.3225 7.18836 6.73361C7.24271 7.35485 6.84108 8.23322 6.40623 8.6856C5.31608 9.75888 5.54257 10.5399 6.37 12.1643C6.62669 12.6881 7.03436 13.5934 7.82858 14.7919C8.65601 15.9992 9.09389 16.6472 10.1569 16.0975C11.3376 15.5035 12.1983 15.8855 13.0891 16.8444C13.6931 17.5369 14.3574 18.1318 14.9614 18.8243C15.8341 19.8542 15.7949 20.5641 15.1124 21.2915C13.8833 22.6309 11.854 23.0736 10.3441 22.1766C9.51064 21.6881 8.68018 21.0487 8.01884 20.303C5.10471 16.9825 3.00291 13.1212 1.73759 8.76321C1.53526 8.02654 1.44165 7.28104 1.39635 6.62432Z" stroke="#D7D9DF" stroke-width="2" stroke-miterlimit="10"/>
</symbol></svg>